# AST/ASF file generated using VICON BodyLanguage
# -----------------------------------------------
:version 1.10
:name VICON
:units
  mass 1.0
  length 0.45
  angle deg
:documentation
   .ast/.asf automatically generated from VICON data using
   VICON BodyBuilder and BodyLanguage model FoxedUp or BRILLIANT.MOD
:root
   order TX TY TZ RX RY RZ
   axis XYZ
   position 0 0 0  
   orientation 0 0 0 
:bonedata
  begin
     id 1 
     name lhipjoint
     direction 0.677091 -0.635792 0.370561 
     length 2.74323 
     axis 0 0 0  XYZ
  end
  begin
     id 2 
     name lfemur
     direction 0.34202 -0.939693 0  
     length 7.44995  
     axis 0 0 20  XYZ
    dof rx ry rz
    limits (-160.0 20.0)
           (-70.0 70.0)
           (-60.0 70.0)
  end
  begin
     id 3 
     name ltibia
     direction 0.34202 -0.939693 0   
     length 7.34467   
     axis 0 0 20   XYZ
    dof rx
    limits (-10.0 170.0)
  end
  begin
     id 4 
     name lfoot
     direction 0.101953 -0.280114 0.954537   
     length 1.72105   
     axis -90 7.62852e-016 20   XYZ
    dof rx rz
    limits (-45.0 90.0)
           (-70.0 20.0)
  end
  begin
     id 5 
     name ltoes
     direction 1.53537e-011 -4.21915e-011 1   
     length 0.865872   
     axis -90 7.62852e-016 20   XYZ
    dof rx
    limits (-90.0 20.0)
  end
  begin
     id 6 
     name rhipjoint
     direction -0.695735 -0.620586 0.361699   
     length 2.81045  
     axis 0 0 0  XYZ 
  end
  begin
     id 7 
     name rfemur
     direction -0.34202 -0.939693 0   
     length 7.29387   
     axis 0 0 -20   XYZ
    dof rx ry rz
    limits (-160.0 20.0)
           (-70.0 70.0)
           (-70.0 60.0)
  end
  begin
     id 8 
     name rtibia
     direction -0.34202 -0.939693 0   
     length 7.44935   
     axis 0 0 -20   XYZ
    dof rx
    limits (-10.0 170.0)
 end
 begin
     id 9 
     name rfoot
     direction -0.104163 -0.286184 0.952496   
     length 1.77731  
     axis -90 -7.62852e-016 -20   XYZ
    dof rx rz
    limits (-45.0 90.0)
           (-20.0 70.0)
  end
  begin
     id 10 
     name rtoes
     direction -1.5355e-011 -4.21888e-011 1   
     length 0.892424   
     axis -90 -7.62852e-016 -20   XYZ
    dof rx
    limits (-90.0 20.0)
  end
  begin
     id 11 
     name lowerback
     direction 0.0100202 0.997226 -0.0737589   
     length 2.16892   
     axis 0 0 0   XYZ
    dof rx ry rz
    limits (-20.0 45.0)
           (-30.0 30.0)
           (-30.0 30.0)
  end
  begin
     id 12 
     name upperback
     direction 0.00432398 0.999988 -0.00215019   
     length 2.17326   
     axis 0 0 0   XYZ
    dof rx ry rz
    limits (-20.0 45.0)
           (-30.0 30.0)
           (-30.0 30.0)
  end
  begin
     id 13 
     name thorax
     direction -0.00195047 0.999485 0.0320434   
     length 2.18139   
     axis 0 0 0   XYZ
    dof rx ry rz
    limits (-20.0 45.0)
           (-30.0 30.0)
           (-30.0 30.0)
  end
  begin
     id 14 
     name lowerneck
     direction 0.00782762 0.986241 0.165128   
     length 1.88415   
     axis 0 0 0   XYZ
    dof rx ry rz
    limits (-20.0 45.0)
           (-30.0 30.0)
           (-30.0 30.0)
  end
  begin
     id 15 
     name upperneck
     direction 0.00988667 0.981098 -0.193258   
     length 1.9242   
     axis 0 0 0   XYZ
    dof rx ry rz
    limits (-20.0 45.0)
           (-30.0 30.0)
           (-30.0 30.0)
  end
  begin
     id 16
     name head
     direction 0.00252199 0.996513 -0.0833958  
     length 1.93887  
     axis 0 0 0   XYZ
    dof rx ry rz
    limits (-20.0 45.0)
           (-30.0 30.0)
           (-30.0 30.0)
  end
  begin
     id 17 
     name lclavicle
     direction 0.929492 0.368193 -0.0218667  
     length 3.5955  
     axis 0 0 0   XYZ
    dof ry rz
    limits (-20.0 10.0)
           (0.0 20.0)
  end
  begin
     id 18 
     name lhumerus
     direction 1 -4.48972e-011 1.41911e-027   
     length 5.2795   
     axis 180 -30 -90   XYZ
    dof rx ry rz
    limits (-60.0 90.0)
           (-90.0 90.0)
           (-90.0 90.0)
  end
  begin
     id 19
     name lradius
     direction 1 -4.48963e-011 7.05772e-027   
     length 3.53504   
     axis 180 -30 -90   XYZ
    dof rx
    limits (-10.0 170.0)
  end
  begin
     id 20
     name lwrist
     direction 1 -4.48957e-011 9.54866e-027   
     length 1.76752   
     axis -7.69462e-015 90 90   XYZ
    dof ry
    limits (-180.0 0.0)
 end
  begin
     id 21 
     name lhand
     direction 1 -4.48979e-011 1.90973e-026   
     length 0.667948   
     axis -1.21857e-014 90 90   XYZ
    dof rx rz
    limits (-90.0 90.0)
           (-45.0 45.0)
  end
  begin
     id 22 
     name lfingers
     direction 1 -4.48987e-011 3.81946e-026   
     length 0.538517   
     axis -2.43714e-014 90 90   XYZ
    dof rx
    limits (0.0 90.0)
  end
  begin
     id 23
     name lthumb
     direction 0.707107 -6.34962e-011 0.707107   
     length 0.773206   
     axis -90 45 2.85299e-015   XYZ
    dof rx rz
    limits (-45.0 45.0)
           (-45.0 45.0)
  end
  begin
     id 24 
     name rclavicle
     direction -0.898763 0.414256 -0.143584   
     length 3.5176  
     axis 0 0 0   XYZ 
    dof ry rz
    limits (-10.0 20.0)
           (-20.0 0.0)
  end
  begin
     id 25 
     name rhumerus
     direction -1 -4.48971e-011 1.129e-027  
     length 5.25035   
     axis 180 30 90   XYZ
    dof rx ry rz
    limits (-90.0 60.0)
           (-90.0 90.0)
           (-90.0 90.0)
  end
  begin
     id 26 
     name rradius
     direction -1 -4.48955e-011 6.34664e-027   
     length 3.58884   
     axis 180 30 90   XYZ
    dof rx
    limits (-10.0 170.0)
  end
  begin
     id 27 
     name rwrist
     direction -1 -4.48966e-011 9.54866e-027   
     length 1.79442   
     axis -7.69462e-015 -90 -90   XYZ
    dof ry
    limits (-180.0 0.0)
  end
  begin
     id 28
     name rhand
     direction -1 -4.48973e-011 1.90973e-026   
     length 0.779235   
     axis -1.21857e-014 -90 -90   XYZ
    dof rx rz
    limits (-90.0 90.0)
           (-45.0 45.0)
  end
  begin
     id 29
     name rfingers
     direction -1 -4.48984e-011 3.81946e-026   
     length 0.62824   
     axis -2.43714e-014 -90 -90   XYZ
    dof rx
    limits (0.0 90.0)
  end
  begin
     id 30
     name rthumb
     direction -0.707107 -6.34968e-011 0.707107   
     length 0.90203   
     axis -90 -45 -2.85299e-015   XYZ
    dof rx rz
    limits (-45.0 45.0)
           (-45.0 45.0)
  end
:hierarchy
  begin
    root lhipjoint rhipjoint lowerback
    lhipjoint lfemur
    lfemur ltibia
    ltibia lfoot
    lfoot ltoes
    rhipjoint rfemur
    rfemur rtibia
    rtibia rfoot
    rfoot rtoes
    lowerback upperback
    upperback thorax
    thorax lowerneck lclavicle rclavicle
    lowerneck upperneck
    upperneck head
    lclavicle lhumerus
    lhumerus lradius
    lradius lwrist
    lwrist lhand lthumb
    lhand lfingers
    rclavicle rhumerus
    rhumerus rradius
    rradius rwrist
    rwrist rhand rthumb
    rhand rfingers
  end

#!OML:ASF I:\Random Stuff\random\construction\7_22_03\Session 2\subj1.ASF
:FULLY-SPECIFIED
:DEGREES
198
root 11.7196 17.3908 5.25611 12.9272 -9.73605 -0.539342
lowerback 16.5849 0.713177 -1.85307
upperback 3.35896 0.351528 -3.69751
thorax -5.69366 0.169182 -2.95455
lowerneck -24.9811 2.80493 -0.113245
upperneck 35.0709 4.37023 -0.267701
head 16.9658 1.68134 0.828842
rclavicle 2.18663e-014 -8.74653e-015
rhumerus -3.46242 20.628 -93.8826
rradius 33.6011
rwrist -37.6379
rhand -26.6264 11.4816
rfingers 7.12502
rthumb -0.0592856 -18.4981
lclavicle 2.18663e-014 -8.74653e-015
lhumerus -0.397115 -32.5731 81.5038
lradius 38.3223
lwrist 18.6505
lhand -26.9974 54.661
lfingers 7.12502
lthumb -0.417534 -635.36
rfemur -25.4524 20.9985 9.73985
rtibia 29.3952
rfoot -21.9014 16.003
rtoes -5.99508
lfemur -33.6915 4.54632 -12.01
ltibia 34.2334
lfoot -10.7368 -4.5112
ltoes -36.7666
199
root 11.8619 17.4032 5.31023 13.241 -10.8977 -0.860826
lowerback 16.6619 0.872346 -1.95588
upperback 3.34673 0.526552 -3.82646
thorax -5.74156 0.253731 -3.07342
lowerneck -25.3517 2.60468 -0.270353
upperneck 34.9583 4.16628 -0.340506
head 16.9952 1.56335 0.784536
rclavicle -2.06736e-014 -2.46493e-014
rhumerus -3.2721 19.1735 -93.9473
rradius 33.8459
rwrist -38.2375
rhand -25.2752 10.4953
rfingers 7.12502
rthumb 1.24577 -19.4808
lclavicle -2.06736e-014 -2.46493e-014
lhumerus -1.19494 -33.6616 81.4623
lradius 40.1663
lwrist 22.3866
lhand -27.3457 55.2489
lfingers 7.12502
lthumb -0.753984 -634.773
rfemur -25.7075 20.3323 9.60501
rtibia 29.0371
rfoot -21.4418 16.8278
rtoes -5.92924
lfemur -33.6916 5.14566 -12.3727
ltibia 34.5204
lfoot -11.4154 -3.58898
ltoes -37.4271
200
root 12.0037 17.4271 5.36178 13.5847 -12.1954 -1.07494
lowerback 16.6312 1.11131 -2.11485
upperback 3.35084 0.79891 -3.9936
thorax -5.7097 0.38647 -3.2191
lowerneck -25.6596 2.34167 -0.491165
upperneck 34.6747 3.89005 -0.403563
head 16.9192 1.41406 0.736312
rclavicle 1.11319e-014 -3.49861e-014
rhumerus -3.11025 17.4901 -93.9719
rradius 34.3188
rwrist -37.9318
rhand -23.8041 9.37943
rfingers 7.12502
rthumb 2.66652 -20.5836
lclavicle 1.11319e-014 -3.49861e-014
lhumerus -1.80756 -34.2651 81.505
lradius 41.9422
lwrist 24.7018
lhand -27.8367 56.2433
lfingers 7.12502
lthumb -1.22818 -633.78
rfemur -26.097 19.6118 9.2822
rtibia 28.6895
rfoot -20.558 18.2868
rtoes -4.47794
lfemur -33.6708 5.72844 -12.859
ltibia 34.7007
lfoot -11.8684 -2.58269
ltoes -38.0327
201
root 12.1387 17.4555 5.40931 13.9249 -13.658 -1.21052
lowerback 16.571 1.45831 -2.36252
upperback 3.34522 1.19537 -4.20271
thorax -5.66772 0.580637 -3.38477
lowerneck -25.792 2.07808 -0.765161
upperneck 34.2343 3.60458 -0.394684
head 16.7189 1.27039 0.722827
rclavicle 1.74931e-014 2.06736e-014
rhumerus -3.06927 15.7993 -93.9562
rradius 34.9785
rwrist -36.7197
rhand -22.3465 8.49587
rfingers 7.12502
rthumb 4.07415 -21.4449
lclavicle 1.74931e-014 2.06736e-014
lhumerus -2.1073 -34.5816 81.5166
lradius 43.3915
lwrist 25.632
lhand -28.3941 56.9747
lfingers 7.12502
lthumb -1.7665 -633.053
rfemur -26.6335 18.7711 8.89776
rtibia 28.4304
rfoot -19.2257 20.0791
rtoes -2.21854
lfemur -33.6122 6.26821 -13.3721
ltibia 34.8174
lfoot -12.1851 -1.48204
ltoes -38.2154
202
root 12.2682 17.4809 5.45118 14.2268 -15.231 -1.37203
lowerback 16.6184 1.86925 -2.51751
upperback 3.33063 1.6792 -4.49065
thorax -5.68466 0.81489 -3.71095
lowerneck -25.9065 1.85664 -1.01244
upperneck 33.8069 3.34227 -0.308334
head 16.5228 1.15179 0.744215
rclavicle 1.19271e-014 6.20208e-014
rhumerus -3.05486 14.4024 -93.8855
rradius 35.5859
rwrist -35.1642
rhand -21.1287 7.93689
rfingers 7.12502
rthumb 5.25005 -21.9781
lclavicle 1.19271e-014 6.20208e-014
lhumerus -1.99121 -35.1931 81.2323
lradius 44.565
lwrist 26.3743
lhand -28.7686 56.9716
lfingers 7.12502
lthumb -2.12821 -633.059
rfemur -27.224 17.7967 8.64865
rtibia 28.2771
rfoot -17.691 21.698
rtoes -0.292127
lfemur -33.4983 6.7712 -13.7807
ltibia 34.91
lfoot -12.4549 -0.341711
ltoes -38.2286
203
root 12.3908 17.5006 5.48747 14.5794 -16.8867 -1.68619
lowerback 16.7101 2.30865 -2.51829
upperback 3.29242 2.21841 -4.83242
thorax -5.73686 1.07286 -4.1993
lowerneck -26.1728 1.64896 -1.1904
upperneck 33.562 3.05157 -0.151968
head 16.4562 1.03684 0.782353
rclavicle 3.65764e-014 -2.54444e-014
rhumerus -2.97086 13.4461 -93.7666
rradius 36.0902
rwrist -34.2054
rhand -20.3972 7.58322
rfingers 7.12502
rthumb 5.95637 -22.3131
lclavicle 3.65764e-014 -2.54444e-014
lhumerus -1.54968 -36.2064 80.5979
lradius 45.6651
lwrist 27.5376
lhand -28.9733 56.9297
lfingers 7.12502
lthumb -2.32591 -633.103
rfemur -27.8827 16.7459 8.68793
rtibia 28.1903
rfoot -16.368 22.7671
rtoes -0.464688
lfemur -33.401 7.45505 -14.0066
ltibia 34.988
lfoot -12.6587 0.58724
ltoes -37.9258
204
root 12.5023 17.5197 5.52248 14.9868 -18.5998 -2.10671
lowerback 16.7134 2.74863 -2.49106
upperback 3.22899 2.76585 -5.18492
thorax -5.75825 1.33439 -4.71516
lowerneck -26.4682 1.44456 -1.54855
upperneck 33.4047 2.68717 0.429231
head 16.4286 0.93191 1.02266
rclavicle -5.80451e-014 2.8625e-014
rhumerus -2.96668 12.9078 -93.6222
rradius 36.7488
rwrist -34.0712
rhand -19.9531 7.43116
rfingers 7.12502
rthumb 6.3851 -22.4526
lclavicle -5.80451e-014 2.8625e-014
lhumerus -1.16567 -37.2895 79.8892
lradius 47.0464
lwrist 28.833
lhand -29.3719 57.2494
lfingers 7.12502
lthumb -2.71087 -632.788
rfemur -28.5591 15.5201 9.03731
rtibia 28.1291
rfoot -15.5426 23.1313
rtoes -3.30036
lfemur -33.2709 8.13196 -14.0793
ltibia 35.0264
lfoot -12.839 1.56122
ltoes -37.4729
205
root 12.6019 17.5413 5.56143 15.3402 -20.2759 -2.46099
lowerback 16.604 3.1475 -2.58713
upperback 3.17325 3.24663 -5.51751
thorax -5.71466 1.56637 -5.11796
lowerneck -26.7616 1.33022 -1.74364
upperneck 33.3975 2.47544 0.781117
head 16.485 0.872398 1.16894
rclavicle 2.62396e-014 3.02153e-014
rhumerus -3.23705 12.6549 -93.4169
rradius 37.9138
rwrist -34.4104
rhand -19.3639 7.28897
rfingers 7.12502
rthumb 6.95388 -22.5768
lclavicle 2.62396e-014 3.02153e-014
lhumerus -1.12391 -37.8334 79.4402
lradius 48.8703
lwrist 29.7336
lhand -29.826 57.6783
lfingers 7.12502
lthumb -3.14939 -632.365
rfemur -29.1095 14.0211 9.5835
rtibia 28.0604
rfoot -15.7069 22.2999
rtoes -10.1323
lfemur -32.9984 8.5845 -14.1517
ltibia 34.9857
lfoot -13.1096 2.7648
ltoes -37.3435
206
root 12.6902 17.5635 5.60314 15.5846 -21.8243 -2.68468
lowerback 16.4739 3.49428 -2.8628
upperback 3.10903 3.63326 -5.7934
thorax -5.68593 1.75552 -5.33601
lowerneck -26.6425 1.18365 -1.82015
upperneck 33.0028 2.26698 0.819733
head 16.264 0.790586 1.14639
rclavicle -4.77083e-015 -1.11319e-014
rhumerus -3.91919 12.7418 -93.0754
rradius 39.7657
rwrist -35.1828
rhand -18.8078 7.15441
rfingers 7.12502
rthumb 7.49063 -22.693
lclavicle -4.77083e-015 -1.11319e-014
lhumerus -1.46569 -37.712 79.3369
lradius 51.0763
lwrist 30.1827
lhand -30.0894 58.1902
lfingers 7.12502
lthumb -3.40377 -631.857
rfemur -29.4781 12.3739 10.2017
rtibia 27.9703
rfoot -16.125 20.592
rtoes -17.3888
lfemur -32.6002 9.023 -14.3392
ltibia 34.8213
lfoot -13.4226 3.85593
ltoes -37.3754
